<svg xmlns="http://www.w3.org/2000/svg" width="490" height="330" viewBox="0 0 490 330" role="img" aria-labelledby="title">
  <title id="title">GCP Airflow DBT Pipeline</title>
  <rect width="490" height="330" rx="16" fill="#ffffff"/>
  <rect x="1" y="1" width="488" height="328" rx="16" fill="none" stroke="#dbe3ef"/>
  <text x="28" y="42" fill="#075be8" font-family="Segoe UI, Arial, sans-serif" font-size="21" font-weight="800">GCP Airflow DBT Pipeline</text>
  <text x="28" y="76" fill="#334155" font-family="Segoe UI, Arial, sans-serif" font-size="14">
    <tspan x="28" dy="0">End-to-end data pipeline on Google Cloud using</tspan>
    <tspan x="28" dy="22">Airflow orchestration, dbt transformations, BigQuery,</tspan>
    <tspan x="28" dy="22">Python, and SQL.</tspan>
  </text>
  <g transform="translate(372 34)">
    <path d="M18 42h54a20 20 0 0 0-5-38 32 32 0 0 0-58 15A18 18 0 0 0 18 42Z" fill="#4285f4"/>
    <path d="M14 40a18 18 0 0 1 19-29" stroke="#34a853" stroke-width="8" fill="none" stroke-linecap="round"/>
    <path d="M40 5a32 32 0 0 1 32 32" stroke="#fbbc04" stroke-width="8" fill="none" stroke-linecap="round"/>
    <path d="M18 42h52" stroke="#ea4335" stroke-width="8" stroke-linecap="round"/>
  </g>
  <g transform="translate(28 158)">
    <rect width="78" height="30" rx="15" fill="#eff6ff"/><text x="39" y="20" text-anchor="middle" fill="#075be8" font-family="Segoe UI, Arial, sans-serif" font-size="13" font-weight="700">Airflow</text>
    <rect x="88" width="56" height="30" rx="15" fill="#fff7ed"/><text x="116" y="20" text-anchor="middle" fill="#c2410c" font-family="Segoe UI, Arial, sans-serif" font-size="13" font-weight="700">DBT</text>
    <rect x="154" width="86" height="30" rx="15" fill="#eff6ff"/><text x="197" y="20" text-anchor="middle" fill="#075be8" font-family="Segoe UI, Arial, sans-serif" font-size="13" font-weight="700">BigQuery</text>
    <rect x="250" width="58" height="30" rx="15" fill="#ecfdf5"/><text x="279" y="20" text-anchor="middle" fill="#047857" font-family="Segoe UI, Arial, sans-serif" font-size="13" font-weight="700">GCP</text>
    <rect x="318" width="72" height="30" rx="15" fill="#eef2ff"/><text x="354" y="20" text-anchor="middle" fill="#4338ca" font-family="Segoe UI, Arial, sans-serif" font-size="13" font-weight="700">Python</text>
    <rect x="400" width="52" height="30" rx="15" fill="#f1f5f9"/><text x="426" y="20" text-anchor="middle" fill="#334155" font-family="Segoe UI, Arial, sans-serif" font-size="13" font-weight="700">SQL</text>
  </g>
  <line x1="28" y1="222" x2="462" y2="222" stroke="#e2e8f0"/>
  <text x="28" y="258" fill="#0f172a" font-family="Segoe UI, Arial, sans-serif" font-size="15" font-weight="700">Repository</text>
  <text x="28" y="284" fill="#075be8" font-family="Segoe UI, Arial, sans-serif" font-size="14">github.com/murali-yandra/gcp-airflow-dbt-pipeline</text>
</svg>
